<svg xmlns="http://www.w3.org/2000/svg" version="1.1" xmlns:xlink="http://www.w3.org/1999/xlink" xmlns:svgjs="http://svgjs.com/svgjs" width="196.73" height="205.52"><svg id="SvgjsSvg1000" data-name="Layer 1" xmlns="http://www.w3.org/2000/svg" viewBox="0 0 196.73 205.52">
  <defs>
    <style>
      .cls-1 {
        fill: #f4194e;
      }

      .cls-1, .cls-2 {
        stroke-width: 0px;
      }

      .cls-2 {
        fill: #fff;
      }
    </style>
  </defs>
  <path class="cls-1" d="M91.34,124.19L.6,160.64s6.28-30.17,3.35-46.9C-.87,86.14,1.12,70.23,1.14,70.22l90.2,53.97Z"></path>
  <path class="cls-2" d="M152.33,87.53c3.24-4.07,4.83-9.48,4.76-16.23-.07-6.23-2.37-13.09-6.91-20.57-.72-1.03-1.08-2.2-1.09-3.49-.02-2.34.78-3.97,2.42-4.9,1.63-.93,3.39-1.41,5.27-1.43,6.34-.08,12.53,1.59,18.56,5.02,6.03,3.43,11.07,8.56,15.14,15.39,4.07,6.83,6.15,15.18,6.26,25.06.13,12.47-2.11,22.5-6.73,30.09-4.62,7.59-11.19,13.98-19.71,19.15-8.53,5.18-18.52,10.18-29.98,15L6.24,205.34c-1.17.27-2.23.22-3.17-.15-.94-.38-1.42-1.35-1.44-2.9l-.44-41.3c-.03-2.6,1.48-4.7,4.52-6.29l74.07-28.62-44.59-16.57c-8.96-3.26-15.99-6.68-21.08-10.25-5.09-3.58-8.66-8.01-10.71-13.31-2.05-5.3-3.13-12.5-3.22-21.59L0,48.37c-.01-1.04.45-1.89,1.38-2.55.93-.66,1.99-.74,3.17-.24l133.79,52.45c6.08-2.94,10.74-6.44,13.99-10.51Z"></path>
  <circle class="cls-1" cx="122.02" cy="23.66" r="23.66"></circle>
</svg><style>@media (prefers-color-scheme: light) { :root { filter: none; } }
</style></svg>