<?xml version="1.0" encoding="UTF-8"?><svg id="Layer_2" xmlns="http://www.w3.org/2000/svg" viewBox="0 0 983.56 235.66"><defs><style>.cls-1,.cls-2,.cls-3,.cls-4{stroke-width:0px;}.cls-1,.cls-3{fill:#f4194e;}.cls-2{fill:#00e7ff;}.cls-5{isolation:isolate;}.cls-3{fill-rule:evenodd;}.cls-4{fill:#fff;}</style></defs><g id="Layer_3"><g class="cls-5"><path class="cls-4" d="M722.44,54.36h-59.32c-3.6,0-5.39-1.66-5.39-4.98V8.31c0-3.87,1.8-5.81,5.39-5.81h153.49c9.68,0,16.87,2.49,21.57,7.47,4.7,4.98,7.05,11.89,7.05,20.74v16.59c0,4.71-2.07,7.05-6.22,7.05h-60.57v173.41c0,3.6-1.8,5.39-5.39,5.39h-45.22c-3.6,0-5.39-1.8-5.39-5.39V54.36Z"/></g><path class="cls-1" d="M579.14,151.21l-100.55,36.53s6.96-30.23,3.71-47c-5.35-27.66-3.14-43.61-3.12-43.61l99.95,54.09h0Z"/><path class="cls-4" d="M646.72,114.47c3.6-4.08,5.36-9.5,5.28-16.27-.07-6.25-2.63-13.12-7.66-20.61-.79-1.03-1.2-2.2-1.21-3.5-.03-2.34.86-3.98,2.68-4.91,1.81-.93,3.76-1.41,5.84-1.43,7.03-.08,13.88,1.6,20.56,5.03,6.68,3.44,12.27,8.58,16.78,15.43,4.5,6.84,6.82,15.21,6.93,25.11.15,12.5-2.34,22.55-7.46,30.16s-12.4,14.01-21.84,19.2c-9.45,5.19-20.52,10.2-33.22,15.03l-148.57,54.85c-1.3.27-2.47.22-3.52-.15-1.04-.38-1.58-1.35-1.6-2.91l-.48-41.4c-.03-2.61,1.64-4.71,5-6.31l82.08-28.69-49.41-16.61c-9.93-3.27-17.72-6.7-23.36-10.27-5.64-3.58-9.6-8.03-11.87-13.34s-3.47-12.53-3.57-21.64l-.19-16.01c-.01-1.04.5-1.9,1.53-2.56,1.04-.67,2.21-.75,3.51-.24l148.26,52.56c6.73-2.95,11.9-6.46,15.5-10.53h0Z"/><path class="cls-4" d="M130.55,142.23c4.44,0,6.67-2.36,6.67-7.09v-16.68c0-18.35-9.74-27.53-29.2-27.53h-52.14v-38.79h84.67c4.17,0,6.26-2.36,6.26-7.09v-16.68c0-8.9-2.37-15.85-7.09-20.86-4.73-5.01-11.96-7.51-21.69-7.51H5.42C1.8,0,0,1.95,0,5.84v220.65c0,3.62,1.81,5.42,5.42,5.42h45.47c3.34,0,5.01-1.81,5.01-5.42v-84.26h74.66-.01Z"/><path class="cls-4" d="M178.1,70.9h-7.51c-3.62,0-5.42,1.81-5.42,5.42v150.16c0,3.62,1.81,5.42,5.42,5.42h44.21c3.61,0,5.42-1.81,5.42-5.42v-65.49c0-9.18.69-16.61,2.09-22.32,1.39-5.7,4.52-9.94,9.38-12.72,4.86-2.78,12.44-4.17,22.73-4.17h10.01c3.06,0,4.59-1.81,4.59-5.42v-40.04c0-3.61-1.53-5.42-4.59-5.42h-11.26c-10.29,0-18.35,1.19-24.19,3.55-5.84,2.37-10.99,6.75-15.43,13.14-6.12-11.12-17.94-16.68-35.45-16.68h0Z"/><path class="cls-4" d="M434.78,213.34c12.23-14.87,18.35-34.83,18.35-59.85v-41.71c0-14.74-3.41-25.23-10.22-31.49-6.82-6.26-16.89-9.38-30.24-9.38h-9.59c-3.62,0-5.42,1.81-5.42,5.42v83c0,10.29-2.37,17.45-7.09,21.48-4.73,4.03-10.15,6.05-16.27,6.05s-11.47-2.01-16.06-6.05c-4.59-4.03-6.88-11.33-6.88-21.9v-47.13c0-14.74-3.41-25.23-10.22-31.49-6.82-6.26-16.76-9.38-29.82-9.38h-9.59c-3.62,0-5.42,1.81-5.42,5.42v74.66c0,25.31,6.05,45.74,18.14,61.31,12.1,15.58,32.05,23.36,59.86,23.36s48.24-7.44,60.48-22.32h-.01Z"/><path class="cls-3" d="M615.52,5c14.47,0,26.2,11.73,26.2,26.2s-11.73,26.2-26.2,26.2-26.2-11.73-26.2-26.2,11.73-26.2,26.2-26.2Z"/><path class="cls-2" d="M845.31,199.6c3.46.75,6.38,2.48,8.75,5.19,2.37,2.71,3.55,6.06,3.55,10.04,0,5.49-1.73,9.82-5.19,12.98-3.46,3.16-8.43,4.74-14.9,4.74h-23.14c-.6,0-.9-.34-.9-1.02v-60.72c0-.68.3-1.02.9-1.02h21.22c6.09,0,10.83,1.39,14.22,4.18,3.39,2.79,5.08,6.73,5.08,11.85,0,3.91-.98,6.92-2.93,9.03-1.96,2.11-4.18,3.69-6.66,4.74ZM822.06,195.87h14.79c3.16,0,5.55-.88,7.17-2.65,1.62-1.77,2.43-4.04,2.43-6.83s-.87-4.97-2.6-6.55c-1.73-1.58-4.33-2.37-7.79-2.37h-14v18.4ZM822.06,224.88h14.33c1.88,0,3.76-.23,5.64-.68,1.88-.45,3.46-1.45,4.74-2.99,1.28-1.54,1.92-3.93,1.92-7.17,0-3.01-.98-5.53-2.93-7.56-1.96-2.03-5.04-3.05-9.25-3.05h-14.45v21.44Z"/><path class="cls-2" d="M873.64,214.84c.45,3.91,1.88,6.79,4.29,8.63,2.41,1.84,5.57,2.76,9.48,2.76,3.16,0,5.68-.41,7.56-1.24,1.88-.83,3.61-1.81,5.19-2.93.3-.15.58-.34.85-.56.26-.23.51-.34.73-.34.38,0,.66.17.85.51.19.34.28.7.28,1.07,0,1.58-.62,3.22-1.86,4.91-1.24,1.69-3.09,3.1-5.53,4.23-2.45,1.13-5.47,1.69-9.08,1.69s-7.13-.77-10.33-2.31c-3.2-1.54-5.79-3.91-7.79-7.11-2-3.2-2.99-7.32-2.99-12.36,0-4.21.83-7.96,2.48-11.23,1.65-3.27,3.97-5.85,6.94-7.73,2.97-1.88,6.41-2.82,10.33-2.82,4.44,0,8.01.92,10.72,2.76,2.71,1.84,4.68,4.21,5.93,7.11,1.24,2.9,1.86,5.96,1.86,9.2,0,.98-.02,1.81-.06,2.48-.04.68-.1,1.32-.17,1.92-.08.9-.64,1.35-1.69,1.35h-27.99ZM873.86,208.4h21.33c.07-1.73-.17-3.42-.73-5.08-.56-1.65-1.6-3.05-3.1-4.18-1.51-1.13-3.65-1.69-6.43-1.69-3.16,0-5.7.96-7.62,2.88-1.92,1.92-3.07,4.61-3.44,8.07Z"/><path class="cls-2" d="M917.77,198.47h-7.67c-.6,0-.9-.3-.9-.9v-5.64c0-.6.3-.9.9-.9h7.67v-13.99c0-.68.26-1.02.79-1.02h.56c2.18,0,3.89.66,5.13,1.97,1.24,1.32,1.86,3.29,1.86,5.92v7.11h8.69c.53,0,.79.3.79.9v5.64c0,.6-.26.9-.79.9h-8.69v33.07c0,.68-.3,1.02-.9,1.02h-6.66c-.53,0-.79-.34-.79-1.02v-33.07Z"/><path class="cls-2" d="M975.21,226.69c-1.66,2.33-3.65,4.06-5.98,5.19-2.33,1.13-4.93,1.69-7.79,1.69-4.14,0-7.66-.98-10.55-2.93-2.9-1.96-5.1-4.59-6.6-7.9-1.51-3.31-2.26-6.96-2.26-10.95,0-4.21.83-7.96,2.48-11.23,1.65-3.27,3.97-5.85,6.94-7.73,2.97-1.88,6.41-2.82,10.33-2.82,3.16,0,5.93.6,8.3,1.81,2.37,1.2,4.23,2.78,5.59,4.74.38-1.96,1.13-3.37,2.26-4.23,1.13-.86,2.56-1.3,4.29-1.3h.56c.53,0,.79.34.79,1.02v39.5c0,.68-.26,1.02-.79,1.02h-6.66c-.6,0-.9-.34-.9-1.02v-4.85ZM962.68,225.67c1.88,0,3.78-.39,5.7-1.18s3.54-2.2,4.85-4.23,1.98-4.85,1.98-8.46-.66-6.53-1.98-8.52c-1.32-1.99-2.92-3.37-4.8-4.12-1.88-.75-3.69-1.13-5.42-1.13-3.24,0-6.09,1.13-8.58,3.39-2.48,2.26-3.72,5.72-3.72,10.38,0,3.39.62,6.09,1.86,8.12,1.24,2.03,2.78,3.5,4.63,4.4,1.84.9,3.67,1.35,5.47,1.35Z"/></g></svg>